<svg width="177" height="177" viewBox="0 0 177 177" fill="none" xmlns="http://www.w3.org/2000/svg">
<rect x="0.5" y="0.5" width="176" height="176" rx="88" stroke="#C1A050"/>
<path d="M105.785 88.9931C105.785 97.8907 98.2567 105.104 88.9696 105.104C79.6825 105.104 72.1539 97.8907 72.1539 88.9931C72.1539 80.0954 79.6825 72.8826 88.9696 72.8826C98.2567 72.8826 105.785 80.0955 105.785 88.9931ZM89 55.4487C79.3843 55.4914 69.4174 57.8323 59.9823 62.3141C52.9769 65.7788 46.1497 70.667 40.2234 76.7005C37.3127 79.7805 33.6002 84.2401 33 88.9983C33.0709 93.12 37.4921 98.2074 40.2234 101.296C45.7808 107.093 52.4301 111.845 59.9823 115.686C68.7809 119.956 78.5198 122.415 89 122.552C98.6248 122.508 108.59 120.14 118.014 115.686C125.02 112.222 131.85 107.33 137.777 101.296C140.687 98.2163 144.4 93.7566 145 88.9983C144.929 84.8766 140.508 79.789 137.777 76.7004C132.219 70.9038 125.566 66.1556 118.014 62.3139C109.22 58.047 99.4573 55.6054 89 55.4487ZM88.9929 63.7785C103.564 63.7785 115.376 75.0713 115.376 89.002C115.376 102.933 103.564 114.225 88.9929 114.225C74.4218 114.225 62.6099 102.932 62.6099 89.002C62.6099 75.0713 74.4218 63.7785 88.9929 63.7785Z" fill="#CDB373"/>
</svg>
