<svg width="177" height="177" viewBox="0 0 177 177" fill="none" xmlns="http://www.w3.org/2000/svg">
<rect x="0.5" y="0.5" width="176" height="176" rx="88" stroke="#C1A050"/>
<path d="M112.219 34C121.802 34 129.829 37.7685 136.3 45.3056C142.77 52.8426 146.004 61.8055 146 72.1944C146 74.0278 145.904 75.8367 145.713 77.6211C145.521 79.4055 145.185 81.1615 144.706 82.8889H108.769L98.9937 67.3055C98.5146 66.4907 97.8438 65.8287 96.9813 65.3194C96.1188 64.8102 95.2083 64.5555 94.25 64.5555C93.0042 64.5555 91.8791 64.963 90.8748 65.7778C89.8704 66.5926 89.1747 67.6111 88.7875 68.8333L81.025 93.5833L75.9937 85.6389C75.5146 84.8241 74.8438 84.162 73.9813 83.6528C73.1188 83.1435 72.2083 82.8889 71.25 82.8889H32.2937C31.8146 81.1574 31.4792 79.4015 31.2875 77.6211C31.0958 75.8407 31 74.0828 31 72.3472C31 61.8565 34.2104 52.8426 40.6312 45.3056C47.0521 37.7685 55.0542 34 64.6375 34C69.2375 34 73.5749 34.9676 77.6497 36.9028C81.7246 38.838 85.3413 41.537 88.5 45C91.5667 41.537 95.1374 38.838 99.2122 36.9028C103.287 34.9676 107.623 34 112.219 34ZM88.5 144C86.775 144 85.1228 143.67 83.5435 143.01C81.9642 142.35 80.5497 141.356 79.3 140.028L40.775 98.9305C40.2 98.3194 39.6729 97.7083 39.1937 97.0972C38.7146 96.4861 38.2354 95.8241 37.7562 95.1111H68.0875L77.8625 110.694C78.3417 111.509 79.0125 112.171 79.875 112.681C80.7375 113.19 81.6479 113.444 82.6063 113.444C83.8521 113.444 85.0021 113.037 86.0562 112.222C87.1104 111.407 87.8292 110.389 88.2125 109.167L95.975 84.4167L100.862 92.3611C101.437 93.1759 102.156 93.8379 103.019 94.3472C103.881 94.8565 104.792 95.1111 105.75 95.1111H139.1L137.662 96.9444L136.225 98.7778L97.5562 140.028C96.3104 141.352 94.9208 142.346 93.3875 143.01C91.8542 143.674 90.225 144.004 88.5 144Z" fill="#C1A050" fill-opacity="0.8"/>
</svg>
