<svg width="177" height="177" viewBox="0 0 177 177" fill="none" xmlns="http://www.w3.org/2000/svg">
<rect x="0.5" y="0.5" width="176" height="176" rx="88" stroke="#C1A050"/>
<path d="M155.52 88.7489C154.814 87.2534 153.869 85.9435 152.739 84.8959C151.609 83.8483 150.317 83.0842 148.94 82.6483C145.647 81.6158 142.262 81.0747 138.86 81.0369C140.096 71.7243 139.533 62.1923 137.215 53.1865C136.38 50.0236 134.601 47.3498 132.225 45.6864C129.849 44.0229 127.045 43.4888 124.361 44.1881C119.303 45.538 114.456 47.8596 110.005 51.0645C106.426 43.1166 101.513 36.1602 95.5824 30.6409C93.6815 28.9263 91.3734 28 89.0019 28C86.6303 28 84.3223 28.9263 82.4213 30.6409C76.4903 36.1602 71.5779 43.1166 67.999 51.0645C63.5535 47.8592 58.7122 45.5354 53.6589 44.1815C50.9741 43.4825 48.1701 44.0175 45.7938 45.6823C43.4174 47.3471 41.6389 50.0223 40.8049 53.1865C38.4873 62.1923 37.9243 71.7243 39.1598 81.0369C35.7528 81.073 32.3623 81.6142 29.0642 82.6483C27.6866 83.0842 26.395 83.8483 25.265 84.8959C24.135 85.9435 23.1894 87.2534 22.4836 88.7489C21.7536 90.2688 21.2807 91.949 21.0924 93.6918C20.9041 95.4347 21.0042 97.2054 21.3869 98.901C23.3336 107.628 29.2835 124.205 47.2374 137.176C64.961 150 80.6446 150 89.0457 150C97.4469 150 113.043 150 130.761 137.176C148.715 124.205 154.665 107.628 156.611 98.901C156.995 97.2058 157.096 95.4353 156.909 93.6925C156.721 91.9497 156.249 90.2692 155.52 88.7489ZM53.9934 123.509C41.7701 114.676 36.8018 104.193 34.8002 97.4157C37.4366 96.9062 40.1158 96.8037 42.7736 97.1106C44.097 101.154 45.6641 105.075 47.4622 108.841C50.4755 115.139 54.0803 120.996 58.205 126.294C56.8121 125.465 55.4082 124.537 53.9934 123.509ZM62.1313 107.077C60.9798 105.088 59.872 103.098 58.8411 100.917C50.2699 82.8273 51.076 68.3981 52.8089 60.3215C56.4047 61.5979 59.8236 63.513 62.9539 66.0043C61.2811 73.3112 60.4507 80.8623 60.4862 88.4438C60.4624 94.7094 61.0141 100.959 62.1313 107.077ZM89.0019 132.275C83.6716 126.924 73.6473 113.523 73.6473 88.424C73.6473 63.6105 83.5181 50.1627 89.0019 44.6059C94.4856 50.1627 104.356 63.6105 104.356 88.424C104.356 113.529 94.3321 126.944 89.0019 132.295V132.275ZM115.872 107.077C116.99 100.959 117.541 94.7094 117.518 88.4438C117.553 80.8623 116.723 73.3112 115.05 66.0043C118.18 63.5107 121.599 61.5933 125.195 60.3149C126.911 68.3981 127.717 82.8605 119.13 100.917C118.121 103.072 117.013 105.121 115.872 107.077ZM124.021 123.509C122.617 124.523 121.23 125.439 119.865 126.267C123.973 120.975 127.562 115.127 130.563 108.841C132.362 105.075 133.929 101.154 135.252 97.1106C137.91 96.8037 140.589 96.9062 143.225 97.4157C141.202 104.193 136.234 114.676 124.01 123.509H124.021Z" fill="#C1A050" fill-opacity="0.8"/>
</svg>
