<svg width="177" height="177" viewBox="0 0 177 177" fill="none" xmlns="http://www.w3.org/2000/svg">
<rect x="0.5" y="0.5" width="176" height="176" rx="88" stroke="#C1A050"/>
<path d="M110.067 34.5385C110.067 38.9247 107.848 43.1314 103.896 46.2329C99.9446 49.3345 94.5852 51.0769 88.997 51.0769C83.4087 51.0769 78.0494 49.3345 74.0979 46.2329C70.1464 43.1314 67.9265 38.9247 67.9265 34.5385C67.9265 30.1522 70.1464 25.9456 74.0979 22.844C78.0494 19.7424 83.4087 18 88.997 18C94.5852 18 99.9446 19.7424 103.896 22.844C107.848 25.9456 110.067 30.1522 110.067 34.5385ZM118.496 143.692C118.496 144.57 118.052 145.411 117.261 146.031C116.471 146.652 115.399 147 114.282 147H42.0351C39.419 147 36.8741 146.331 34.7858 145.094C32.6976 143.857 31.1796 142.12 30.4618 140.145C29.7441 138.17 29.8656 136.066 30.808 134.15C31.7503 132.235 33.4623 130.612 35.6845 129.529L57.9518 118.673C59.7779 117.783 61.2847 116.541 62.3295 115.067C63.3744 113.592 63.9229 111.932 63.9231 110.245V107.308H73.9274C78.3976 107.307 82.6844 105.912 85.8448 103.431L88.997 100.96L92.1449 103.431C93.7108 104.661 95.57 105.636 97.6163 106.301C99.6627 106.966 101.856 107.308 104.071 107.308H114.282V110.258C114.282 111.941 114.828 113.595 115.867 115.067C116.907 116.538 118.406 117.778 120.223 118.67L142.331 129.516C144.551 130.604 146.26 132.23 147.199 134.148C148.137 136.067 148.255 138.173 147.533 140.148C146.811 142.123 145.29 143.86 143.198 145.097C141.107 146.333 138.56 147.001 135.942 147H126.207C126.671 145.965 126.924 144.85 126.924 143.692V142.865C126.923 140.462 125.811 138.14 123.795 136.332C121.778 134.523 118.994 133.35 115.959 133.032L60.2695 127.184C59.1707 127.081 58.0646 127.322 57.1901 127.854C56.3156 128.387 55.7429 129.167 55.5957 130.028C55.4486 130.889 55.7387 131.761 56.4034 132.455C57.0681 133.15 58.0542 133.611 59.1486 133.739L114.842 139.587C115.853 139.694 116.781 140.085 117.453 140.688C118.125 141.291 118.495 142.064 118.496 142.865V143.692ZM98.1078 98.754L93.2111 94.9105V82.5331C93.8404 82.8175 94.4219 83.1682 94.9557 83.5849L102.874 89.8034C103.665 90.4225 104.736 90.7699 105.853 90.7692H118.496C119.214 90.7689 119.92 90.6246 120.547 90.35C121.174 90.0754 121.701 89.6796 122.078 89.2001C122.456 88.7206 122.671 88.1734 122.703 87.6104C122.735 87.0473 122.584 86.4872 122.263 85.983L118.049 79.3676C117.812 78.9655 117.475 78.6047 117.057 78.3068C116.64 78.0089 116.15 77.7799 115.618 77.6333C115.085 77.4868 114.52 77.4257 113.957 77.4536C113.394 77.4816 112.843 77.5981 112.339 77.7962C111.834 77.9943 111.385 78.27 111.018 78.6069C110.652 78.9438 110.375 79.335 110.205 79.7574C110.035 80.1797 109.975 80.6246 110.028 81.0656C110.081 81.5066 110.246 81.9348 110.514 82.3247L111.677 84.1538H107.598L100.914 78.9078C97.7534 76.4275 93.4667 75.0341 88.997 75.0341C84.5273 75.0341 80.2406 76.4275 77.0795 78.9078L70.396 84.1538H66.3167L67.4798 82.3247C67.7477 81.9348 67.9131 81.5066 67.9661 81.0656C68.0192 80.6246 67.9588 80.1797 67.7886 79.7574C67.6185 79.335 67.3419 78.9438 66.9755 78.6069C66.609 78.27 66.1601 77.9943 65.6553 77.7962C65.1505 77.5981 64.6002 77.4816 64.0369 77.4536C63.4737 77.4257 62.909 77.4868 62.3764 77.6333C61.8439 77.7799 61.3542 78.0089 60.9365 78.3068C60.5189 78.6047 60.1817 78.9655 59.945 79.3676L55.7309 85.983C55.41 86.4872 55.2585 87.0473 55.2908 87.6104C55.3231 88.1734 55.5381 88.7206 55.9155 89.2001C56.2929 89.6796 56.8202 90.0754 57.4472 90.35C58.0743 90.6246 58.7803 90.7689 59.4983 90.7692H72.1406C73.2582 90.769 74.3299 90.4204 75.12 89.8001L83.0383 83.5849C83.5748 83.1682 84.1564 82.8175 84.7829 82.5331V94.9105L79.8861 98.754C78.3059 99.9947 76.1625 100.692 73.9274 100.692H48.4827C47.1122 100.692 45.7623 100.43 44.5501 99.9281C43.3379 99.4262 42.2999 98.6998 41.5262 97.8119C40.7524 96.924 40.2661 95.9014 40.1096 94.8327C39.953 93.764 40.1308 92.6814 40.6276 91.6788L53.2868 66.1269C54.518 63.6424 56.6767 61.5077 59.48 60.0026C62.2833 58.4975 65.6005 57.6923 68.9969 57.6923H108.997C112.393 57.6923 115.711 58.4975 118.514 60.0026C121.317 61.5077 123.476 63.6424 124.707 66.1269L137.371 91.6788C137.868 92.6819 138.045 93.7651 137.888 94.8343C137.731 95.9035 137.244 96.9266 136.47 97.8146C135.695 98.7027 134.656 99.4289 133.442 99.9304C132.229 100.432 130.878 100.693 129.507 100.692H104.062C101.827 100.692 99.6838 99.9947 98.1036 98.754" fill="#C1A050" fill-opacity="0.8"/>
</svg>
